####
#
# OBJ File Generated by Meshlab
#
####
# Object long.obj
#
# Vertices: 200
# Faces: 198
#
####
vn 0.000000 -1.000000 -0.000000
v 0.000000 0.000000 0.000000
vn 0.000000 -1.000000 -0.000000
v -0.020000 0.000000 0.000000
vn 0.000000 -1.000000 -0.000000
v 0.000000 -0.000000 0.010101
vn 0.000000 -1.000000 -0.000000
v -0.020000 -0.000000 0.010101
vn 0.000000 -1.000000 -0.000000
v 0.000000 -0.000000 0.020202
vn 0.000000 -1.000000 -0.000000
v -0.020000 -0.000000 0.020202
vn 0.000000 -1.000000 -0.000000
v 0.000000 -0.000000 0.030303
vn 0.000000 -1.000000 -0.000000
v -0.020000 -0.000000 0.030303
vn 0.000000 -1.000000 -0.000000
v 0.000000 -0.000000 0.040404
vn 0.000000 -1.000000 -0.000000
v -0.020000 -0.000000 0.040404
vn 0.000000 -1.000000 -0.000000
v 0.000000 -0.000000 0.050505
vn 0.000000 -1.000000 -0.000000
v -0.020000 -0.000000 0.050505
vn 0.000000 -1.000000 -0.000000
v 0.000000 -0.000000 0.060606
vn 0.000000 -1.000000 -0.000000
v -0.020000 -0.000000 0.060606
vn 0.000000 -1.000000 -0.000000
v 0.000000 -0.000000 0.070707
vn 0.000000 -1.000000 -0.000000
v -0.020000 -0.000000 0.070707
vn 0.000000 -1.000000 -0.000000
v 0.000000 -0.000000 0.080808
vn 0.000000 -1.000000 -0.000000
v -0.020000 -0.000000 0.080808
vn 0.000000 -1.000000 -0.000000
v 0.000000 -0.000000 0.090909
vn 0.000000 -1.000000 -0.000000
v -0.020000 -0.000000 0.090909
vn 0.000000 -1.000000 -0.000000
v 0.000000 -0.000000 0.101010
vn 0.000000 -1.000000 -0.000000
v -0.020000 -0.000000 0.101010
vn 0.000000 -1.000000 -0.000000
v 0.000000 -0.000000 0.111111
vn 0.000000 -1.000000 -0.000000
v -0.020000 -0.000000 0.111111
vn 0.000000 -1.000000 -0.000000
v 0.000000 -0.000000 0.121212
vn 0.000000 -1.000000 -0.000000
v -0.020000 -0.000000 0.121212
vn 0.000000 -1.000000 -0.000000
v 0.000000 -0.000000 0.131313
vn 0.000000 -1.000000 -0.000000
v -0.020000 -0.000000 0.131313
vn 0.000000 -1.000000 -0.000000
v 0.000000 -0.000000 0.141414
vn 0.000000 -1.000000 -0.000000
v -0.020000 -0.000000 0.141414
vn 0.000000 -1.000000 -0.000000
v 0.000000 -0.000000 0.151515
vn 0.000000 -1.000000 -0.000000
v -0.020000 -0.000000 0.151515
vn 0.000000 -1.000000 -0.000000
v 0.000000 -0.000000 0.161616
vn 0.000000 -1.000000 -0.000000
v -0.020000 -0.000000 0.161616
vn 0.000000 -1.000000 -0.000000
v 0.000000 -0.000000 0.171717
vn 0.000000 -1.000000 -0.000000
v -0.020000 -0.000000 0.171717
vn 0.000000 -1.000000 -0.000000
v 0.000000 -0.000000 0.181818
vn 0.000000 -1.000000 -0.000000
v -0.020000 -0.000000 0.181818
vn 0.000000 -1.000000 -0.000000
v 0.000000 -0.000000 0.191919
vn 0.000000 -1.000000 -0.000000
v -0.020000 -0.000000 0.191919
vn 0.000000 -1.000000 -0.000000
v 0.000000 -0.000000 0.202020
vn 0.000000 -1.000000 -0.000000
v -0.020000 -0.000000 0.202020
vn 0.000000 -1.000000 -0.000000
v 0.000000 -0.000000 0.212121
vn 0.000000 -1.000000 -0.000000
v -0.020000 -0.000000 0.212121
vn 0.000000 -1.000000 -0.000000
v 0.000000 -0.000000 0.222222
vn 0.000000 -1.000000 -0.000000
v -0.020000 -0.000000 0.222222
vn 0.000000 -1.000000 -0.000000
v 0.000000 -0.000000 0.232323
vn 0.000000 -1.000000 -0.000000
v -0.020000 -0.000000 0.232323
vn 0.000000 -1.000000 -0.000000
v 0.000000 -0.000000 0.242424
vn 0.000000 -1.000000 -0.000000
v -0.020000 -0.000000 0.242424
vn 0.000000 -1.000000 -0.000000
v 0.000000 -0.000000 0.252525
vn 0.000000 -1.000000 -0.000000
v -0.020000 -0.000000 0.252525
vn 0.000000 -1.000000 -0.000000
v 0.000000 -0.000000 0.262626
vn 0.000000 -1.000000 -0.000000
v -0.020000 -0.000000 0.262626
vn 0.000000 -1.000000 -0.000000
v 0.000000 -0.000000 0.272727
vn 0.000000 -1.000000 -0.000000
v -0.020000 -0.000000 0.272727
vn 0.000000 -1.000000 -0.000000
v 0.000000 -0.000000 0.282828
vn 0.000000 -1.000000 -0.000000
v -0.020000 -0.000000 0.282828
vn 0.000000 -1.000000 -0.000000
v 0.000000 -0.000000 0.292929
vn 0.000000 -1.000000 -0.000000
v -0.020000 -0.000000 0.292929
vn 0.000000 -1.000000 -0.000000
v 0.000000 -0.000000 0.303030
vn 0.000000 -1.000000 -0.000000
v -0.020000 -0.000000 0.303030
vn 0.000000 -1.000000 -0.000000
v 0.000000 -0.000000 0.313131
vn 0.000000 -1.000000 -0.000000
v -0.020000 -0.000000 0.313131
vn 0.000000 -1.000000 -0.000000
v 0.000000 -0.000000 0.323232
vn 0.000000 -1.000000 -0.000000
v -0.020000 -0.000000 0.323232
vn 0.000000 -1.000000 -0.000000
v 0.000000 -0.000000 0.333333
vn 0.000000 -1.000000 -0.000000
v -0.020000 -0.000000 0.333333
vn 0.000000 -1.000000 -0.000000
v 0.000000 -0.000000 0.343434
vn 0.000000 -1.000000 -0.000000
v -0.020000 -0.000000 0.343434
vn 0.000000 -1.000000 -0.000000
v 0.000000 -0.000000 0.353535
vn 0.000000 -1.000000 -0.000000
v -0.020000 -0.000000 0.353535
vn 0.000000 -1.000000 -0.000000
v 0.000000 -0.000000 0.363636
vn 0.000000 -1.000000 -0.000000
v -0.020000 -0.000000 0.363636
vn 0.000000 -1.000000 -0.000000
v 0.000000 -0.000000 0.373737
vn 0.000000 -1.000000 -0.000000
v -0.020000 -0.000000 0.373737
vn 0.000000 -1.000000 -0.000000
v 0.000000 -0.000000 0.383838
vn 0.000000 -1.000000 -0.000000
v -0.020000 -0.000000 0.383838
vn 0.000000 -1.000000 -0.000000
v 0.000000 -0.000000 0.393939
vn 0.000000 -1.000000 -0.000000
v -0.020000 -0.000000 0.393939
vn 0.000000 -1.000000 -0.000000
v 0.000000 -0.000000 0.404040
vn 0.000000 -1.000000 -0.000000
v -0.020000 -0.000000 0.404040
vn 0.000000 -1.000000 -0.000000
v 0.000000 -0.000000 0.414141
vn 0.000000 -1.000000 -0.000000
v -0.020000 -0.000000 0.414141
vn 0.000000 -1.000000 -0.000000
v 0.000000 -0.000000 0.424242
vn 0.000000 -1.000000 -0.000000
v -0.020000 -0.000000 0.424242
vn 0.000000 -1.000000 -0.000000
v 0.000000 -0.000000 0.434343
vn 0.000000 -1.000000 -0.000000
v -0.020000 -0.000000 0.434343
vn 0.000000 -1.000000 -0.000000
v 0.000000 -0.000000 0.444444
vn 0.000000 -1.000000 -0.000000
v -0.020000 -0.000000 0.444444
vn 0.000000 -1.000000 -0.000000
v 0.000000 -0.000000 0.454545
vn 0.000000 -1.000000 -0.000000
v -0.020000 -0.000000 0.454545
vn 0.000000 -1.000000 -0.000000
v 0.000000 -0.000000 0.464646
vn 0.000000 -1.000000 -0.000000
v -0.020000 -0.000000 0.464646
vn 0.000000 -1.000000 -0.000000
v 0.000000 -0.000000 0.474747
vn 0.000000 -1.000000 -0.000000
v -0.020000 -0.000000 0.474747
vn 0.000000 -1.000000 -0.000000
v 0.000000 -0.000000 0.484848
vn 0.000000 -1.000000 -0.000000
v -0.020000 -0.000000 0.484848
vn 0.000000 -1.000000 -0.000000
v 0.000000 -0.000000 0.494949
vn 0.000000 -1.000000 -0.000000
v -0.020000 -0.000000 0.494949
vn 0.000000 -1.000000 -0.000000
v 0.000000 -0.000000 0.505050
vn 0.000000 -1.000000 -0.000000
v -0.020000 -0.000000 0.505050
vn 0.000000 -1.000000 -0.000000
v 0.000000 -0.000000 0.515152
vn 0.000000 -1.000000 -0.000000
v -0.020000 -0.000000 0.515152
vn 0.000000 -1.000000 -0.000000
v 0.000000 -0.000000 0.525253
vn 0.000000 -1.000000 -0.000000
v -0.020000 -0.000000 0.525253
vn 0.000000 -1.000000 -0.000000
v 0.000000 -0.000000 0.535354
vn 0.000000 -1.000000 -0.000000
v -0.020000 -0.000000 0.535354
vn 0.000000 -1.000000 -0.000000
v 0.000000 -0.000000 0.545455
vn 0.000000 -1.000000 -0.000000
v -0.020000 -0.000000 0.545455
vn 0.000000 -1.000000 -0.000000
v 0.000000 -0.000000 0.555556
vn 0.000000 -1.000000 -0.000000
v -0.020000 -0.000000 0.555556
vn 0.000000 -1.000000 -0.000000
v 0.000000 -0.000000 0.565657
vn 0.000000 -1.000000 -0.000000
v -0.020000 -0.000000 0.565657
vn 0.000000 -1.000000 -0.000000
v 0.000000 -0.000000 0.575758
vn 0.000000 -1.000000 -0.000000
v -0.020000 -0.000000 0.575758
vn 0.000000 -1.000000 -0.000000
v 0.000000 -0.000000 0.585859
vn 0.000000 -1.000000 -0.000000
v -0.020000 -0.000000 0.585859
vn 0.000000 -1.000000 -0.000000
v 0.000000 -0.000000 0.595960
vn 0.000000 -1.000000 -0.000000
v -0.020000 -0.000000 0.595960
vn 0.000000 -1.000000 -0.000000
v 0.000000 -0.000000 0.606061
vn 0.000000 -1.000000 -0.000000
v -0.020000 -0.000000 0.606061
vn 0.000000 -1.000000 -0.000000
v 0.000000 -0.000000 0.616162
vn 0.000000 -1.000000 -0.000000
v -0.020000 -0.000000 0.616162
vn 0.000000 -1.000000 -0.000000
v 0.000000 -0.000000 0.626263
vn 0.000000 -1.000000 -0.000000
v -0.020000 -0.000000 0.626263
vn 0.000000 -1.000000 -0.000000
v 0.000000 -0.000000 0.636364
vn 0.000000 -1.000000 -0.000000
v -0.020000 -0.000000 0.636364
vn 0.000000 -1.000000 -0.000000
v 0.000000 -0.000000 0.646465
vn 0.000000 -1.000000 -0.000000
v -0.020000 -0.000000 0.646465
vn 0.000000 -1.000000 -0.000000
v 0.000000 -0.000000 0.656566
vn 0.000000 -1.000000 -0.000000
v -0.020000 -0.000000 0.656566
vn 0.000000 -1.000000 -0.000000
v 0.000000 -0.000000 0.666667
vn 0.000000 -1.000000 -0.000000
v -0.020000 -0.000000 0.666667
vn 0.000000 -1.000000 -0.000000
v 0.000000 -0.000000 0.676768
vn 0.000000 -1.000000 -0.000000
v -0.020000 -0.000000 0.676768
vn 0.000000 -1.000000 -0.000000
v 0.000000 -0.000000 0.686869
vn 0.000000 -1.000000 -0.000000
v -0.020000 -0.000000 0.686869
vn 0.000000 -1.000000 -0.000000
v 0.000000 -0.000000 0.696970
vn 0.000000 -1.000000 -0.000000
v -0.020000 -0.000000 0.696970
vn 0.000000 -1.000000 -0.000000
v 0.000000 -0.000000 0.707071
vn 0.000000 -1.000000 -0.000000
v -0.020000 -0.000000 0.707071
vn 0.000000 -1.000000 -0.000000
v 0.000000 -0.000000 0.717172
vn 0.000000 -1.000000 -0.000000
v -0.020000 -0.000000 0.717172
vn 0.000000 -1.000000 -0.000000
v 0.000000 -0.000000 0.727273
vn 0.000000 -1.000000 -0.000000
v -0.020000 -0.000000 0.727273
vn 0.000000 -1.000000 -0.000000
v 0.000000 -0.000000 0.737374
vn 0.000000 -1.000000 -0.000000
v -0.020000 -0.000000 0.737374
vn 0.000000 -1.000000 -0.000000
v 0.000000 -0.000000 0.747475
vn 0.000000 -1.000000 -0.000000
v -0.020000 -0.000000 0.747475
vn 0.000000 -1.000000 -0.000000
v 0.000000 -0.000000 0.757576
vn 0.000000 -1.000000 -0.000000
v -0.020000 -0.000000 0.757576
vn 0.000000 -1.000000 -0.000000
v 0.000000 -0.000000 0.767677
vn 0.000000 -1.000000 -0.000000
v -0.020000 -0.000000 0.767677
vn 0.000000 -1.000000 -0.000000
v 0.000000 -0.000000 0.777778
vn 0.000000 -1.000000 -0.000000
v -0.020000 -0.000000 0.777778
vn 0.000000 -1.000000 -0.000000
v 0.000000 -0.000000 0.787879
vn 0.000000 -1.000000 -0.000000
v -0.020000 -0.000000 0.787879
vn 0.000000 -1.000000 -0.000000
v 0.000000 -0.000000 0.797980
vn 0.000000 -1.000000 -0.000000
v -0.020000 -0.000000 0.797980
vn 0.000000 -1.000000 -0.000000
v 0.000000 -0.000000 0.808081
vn 0.000000 -1.000000 -0.000000
v -0.020000 -0.000000 0.808081
vn 0.000000 -1.000000 -0.000000
v 0.000000 -0.000000 0.818182
vn 0.000000 -1.000000 -0.000000
v -0.020000 -0.000000 0.818182
vn 0.000000 -1.000000 -0.000000
v 0.000000 -0.000000 0.828283
vn 0.000000 -1.000000 -0.000000
v -0.020000 -0.000000 0.828283
vn 0.000000 -1.000000 -0.000000
v 0.000000 -0.000000 0.838384
vn 0.000000 -1.000000 -0.000000
v -0.020000 -0.000000 0.838384
vn 0.000000 -1.000000 -0.000000
v 0.000000 -0.000000 0.848485
vn 0.000000 -1.000000 -0.000000
v -0.020000 -0.000000 0.848485
vn 0.000000 -1.000000 -0.000000
v 0.000000 -0.000000 0.858586
vn 0.000000 -1.000000 -0.000000
v -0.020000 -0.000000 0.858586
vn 0.000000 -1.000000 -0.000000
v 0.000000 -0.000000 0.868687
vn 0.000000 -1.000000 -0.000000
v -0.020000 -0.000000 0.868687
vn 0.000000 -1.000000 -0.000000
v 0.000000 -0.000000 0.878788
vn 0.000000 -1.000000 -0.000000
v -0.020000 -0.000000 0.878788
vn 0.000000 -1.000000 -0.000000
v 0.000000 -0.000000 0.888889
vn 0.000000 -1.000000 -0.000000
v -0.020000 -0.000000 0.888889
vn 0.000000 -1.000000 -0.000000
v 0.000000 -0.000000 0.898990
vn 0.000000 -1.000000 -0.000000
v -0.020000 -0.000000 0.898990
vn 0.000000 -1.000000 -0.000000
v 0.000000 -0.000000 0.909091
vn 0.000000 -1.000000 -0.000000
v -0.020000 -0.000000 0.909091
vn 0.000000 -1.000000 -0.000000
v 0.000000 -0.000000 0.919192
vn 0.000000 -1.000000 -0.000000
v -0.020000 -0.000000 0.919192
vn 0.000000 -1.000000 -0.000000
v 0.000000 -0.000000 0.929293
vn 0.000000 -1.000000 -0.000000
v -0.020000 -0.000000 0.929293
vn 0.000000 -1.000000 -0.000000
v 0.000000 -0.000000 0.939394
vn 0.000000 -1.000000 -0.000000
v -0.020000 -0.000000 0.939394
vn 0.000000 -1.000000 -0.000000
v 0.000000 -0.000000 0.949495
vn 0.000000 -1.000000 -0.000000
v -0.020000 -0.000000 0.949495
vn 0.000000 -1.000000 -0.000000
v 0.000000 -0.000000 0.959596
vn 0.000000 -1.000000 -0.000000
v -0.020000 -0.000000 0.959596
vn 0.000000 -1.000000 -0.000000
v 0.000000 -0.000000 0.969697
vn 0.000000 -1.000000 -0.000000
v -0.020000 -0.000000 0.969697
vn 0.000000 -1.000000 -0.000000
v 0.000000 -0.000000 0.979798
vn 0.000000 -1.000000 -0.000000
v -0.020000 -0.000000 0.979798
vn 0.000000 -1.000000 -0.000000
v 0.000000 -0.000000 0.989899
vn 0.000000 -1.000000 -0.000000
v -0.020000 -0.000000 0.989899
vn 0.000000 -1.000000 -0.000000
v 0.000000 -0.000000 1.000000
vn 0.000000 -1.000000 -0.000000
v -0.020000 -0.000000 1.000000
# 200 vertices, 0 vertices normals

f 4//4 2//2 1//1
f 1//1 3//3 4//4
f 6//6 4//4 3//3
f 3//3 5//5 6//6
f 8//8 6//6 5//5
f 5//5 7//7 8//8
f 10//10 8//8 7//7
f 7//7 9//9 10//10
f 12//12 10//10 9//9
f 9//9 11//11 12//12
f 14//14 12//12 11//11
f 11//11 13//13 14//14
f 16//16 14//14 13//13
f 13//13 15//15 16//16
f 18//18 16//16 15//15
f 15//15 17//17 18//18
f 20//20 18//18 17//17
f 17//17 19//19 20//20
f 22//22 20//20 19//19
f 19//19 21//21 22//22
f 24//24 22//22 21//21
f 21//21 23//23 24//24
f 26//26 24//24 23//23
f 23//23 25//25 26//26
f 28//28 26//26 25//25
f 25//25 27//27 28//28
f 30//30 28//28 27//27
f 27//27 29//29 30//30
f 32//32 30//30 29//29
f 29//29 31//31 32//32
f 34//34 32//32 31//31
f 31//31 33//33 34//34
f 36//36 34//34 33//33
f 33//33 35//35 36//36
f 38//38 36//36 35//35
f 35//35 37//37 38//38
f 40//40 38//38 37//37
f 37//37 39//39 40//40
f 42//42 40//40 39//39
f 39//39 41//41 42//42
f 44//44 42//42 41//41
f 41//41 43//43 44//44
f 46//46 44//44 43//43
f 43//43 45//45 46//46
f 48//48 46//46 45//45
f 45//45 47//47 48//48
f 50//50 48//48 47//47
f 47//47 49//49 50//50
f 52//52 50//50 49//49
f 49//49 51//51 52//52
f 54//54 52//52 51//51
f 51//51 53//53 54//54
f 56//56 54//54 53//53
f 53//53 55//55 56//56
f 58//58 56//56 55//55
f 55//55 57//57 58//58
f 60//60 58//58 57//57
f 57//57 59//59 60//60
f 62//62 60//60 59//59
f 59//59 61//61 62//62
f 64//64 62//62 61//61
f 61//61 63//63 64//64
f 66//66 64//64 63//63
f 63//63 65//65 66//66
f 68//68 66//66 65//65
f 65//65 67//67 68//68
f 70//70 68//68 67//67
f 67//67 69//69 70//70
f 72//72 70//70 69//69
f 69//69 71//71 72//72
f 74//74 72//72 71//71
f 71//71 73//73 74//74
f 76//76 74//74 73//73
f 73//73 75//75 76//76
f 78//78 76//76 75//75
f 75//75 77//77 78//78
f 80//80 78//78 77//77
f 77//77 79//79 80//80
f 82//82 80//80 79//79
f 79//79 81//81 82//82
f 84//84 82//82 81//81
f 81//81 83//83 84//84
f 86//86 84//84 83//83
f 83//83 85//85 86//86
f 88//88 86//86 85//85
f 85//85 87//87 88//88
f 90//90 88//88 87//87
f 87//87 89//89 90//90
f 92//92 90//90 89//89
f 89//89 91//91 92//92
f 94//94 92//92 91//91
f 91//91 93//93 94//94
f 96//96 94//94 93//93
f 93//93 95//95 96//96
f 98//98 96//96 95//95
f 95//95 97//97 98//98
f 100//100 98//98 97//97
f 97//97 99//99 100//100
f 102//102 100//100 99//99
f 99//99 101//101 102//102
f 104//104 102//102 101//101
f 101//101 103//103 104//104
f 106//106 104//104 103//103
f 103//103 105//105 106//106
f 108//108 106//106 105//105
f 105//105 107//107 108//108
f 110//110 108//108 107//107
f 107//107 109//109 110//110
f 112//112 110//110 109//109
f 109//109 111//111 112//112
f 114//114 112//112 111//111
f 111//111 113//113 114//114
f 116//116 114//114 113//113
f 113//113 115//115 116//116
f 118//118 116//116 115//115
f 115//115 117//117 118//118
f 120//120 118//118 117//117
f 117//117 119//119 120//120
f 122//122 120//120 119//119
f 119//119 121//121 122//122
f 124//124 122//122 121//121
f 121//121 123//123 124//124
f 126//126 124//124 123//123
f 123//123 125//125 126//126
f 128//128 126//126 125//125
f 125//125 127//127 128//128
f 130//130 128//128 127//127
f 127//127 129//129 130//130
f 132//132 130//130 129//129
f 129//129 131//131 132//132
f 134//134 132//132 131//131
f 131//131 133//133 134//134
f 136//136 134//134 133//133
f 133//133 135//135 136//136
f 138//138 136//136 135//135
f 135//135 137//137 138//138
f 140//140 138//138 137//137
f 137//137 139//139 140//140
f 142//142 140//140 139//139
f 139//139 141//141 142//142
f 144//144 142//142 141//141
f 141//141 143//143 144//144
f 146//146 144//144 143//143
f 143//143 145//145 146//146
f 148//148 146//146 145//145
f 145//145 147//147 148//148
f 150//150 148//148 147//147
f 147//147 149//149 150//150
f 152//152 150//150 149//149
f 149//149 151//151 152//152
f 154//154 152//152 151//151
f 151//151 153//153 154//154
f 156//156 154//154 153//153
f 153//153 155//155 156//156
f 158//158 156//156 155//155
f 155//155 157//157 158//158
f 160//160 158//158 157//157
f 157//157 159//159 160//160
f 162//162 160//160 159//159
f 159//159 161//161 162//162
f 164//164 162//162 161//161
f 161//161 163//163 164//164
f 166//166 164//164 163//163
f 163//163 165//165 166//166
f 168//168 166//166 165//165
f 165//165 167//167 168//168
f 170//170 168//168 167//167
f 167//167 169//169 170//170
f 172//172 170//170 169//169
f 169//169 171//171 172//172
f 174//174 172//172 171//171
f 171//171 173//173 174//174
f 176//176 174//174 173//173
f 173//173 175//175 176//176
f 178//178 176//176 175//175
f 175//175 177//177 178//178
f 180//180 178//178 177//177
f 177//177 179//179 180//180
f 182//182 180//180 179//179
f 179//179 181//181 182//182
f 184//184 182//182 181//181
f 181//181 183//183 184//184
f 186//186 184//184 183//183
f 183//183 185//185 186//186
f 188//188 186//186 185//185
f 185//185 187//187 188//188
f 190//190 188//188 187//187
f 187//187 189//189 190//190
f 192//192 190//190 189//189
f 189//189 191//191 192//192
f 194//194 192//192 191//191
f 191//191 193//193 194//194
f 196//196 194//194 193//193
f 193//193 195//195 196//196
f 198//198 196//196 195//195
f 195//195 197//197 198//198
f 200//200 198//198 197//197
f 197//197 199//199 200//200
# 198 faces, 0 coords texture

# End of File
