####
#
# OBJ File Generated by Meshlab
#
####
# Object untitled.obj
#
# Vertices: 4
# Faces: 2
#
####
#mtllib ./untitled.obj.mtl

vn 0.000000 1.000000 0.000000
v -1.000000 0.000000 1.000000
vn 0.000000 1.000000 0.000000
v 1.000000 0.000000 1.000000
vn 0.000000 1.000000 0.000000
v -1.000000 0.000000 -1.000000
vn 0.000000 1.000000 0.000000
v 1.000000 0.000000 -1.000000
# 4 vertices, 0 vertices normals


#usemtl material_0
vt 0.000000 0.000000
vt 1.000000 0.000000
vt 1.000000 1.000000
f 1/1/1 2/2/2 4/3/4
vt 0.000000 1.000000
f 1/1/1 4/3/4 3/4/3
# 2 faces, 4 coords texture

# End of File
