####
#
# OBJ File Generated by Meshlab
#
####
# Object cube.obj
#
# Vertices: 8
# Faces: 12
#
####
vn -0.000924 -0.000924 -0.000924
v -0.020000 -0.020000 -0.020000
vn 0.000533 -0.001067 -0.001067
v 0.020000 -0.020000 -0.020000
vn -0.001067 0.000533 -0.001067
v -0.020000 0.020000 -0.020000
vn 0.001067 0.001067 -0.000533
v 0.020000 0.020000 -0.020000
vn -0.001067 -0.001067 0.000533
v -0.020000 -0.020000 0.020000
vn 0.001067 -0.000533 0.001067
v 0.020000 -0.020000 0.020000
vn -0.000533 0.001067 0.001067
v -0.020000 0.020000 0.020000
vn 0.000924 0.000924 0.000924
v 0.020000 0.020000 0.020000
# 8 vertices, 0 vertices normals

f 3//3 2//2 1//1
f 2//2 3//3 4//4
f 5//5 3//3 1//1
f 3//3 5//5 7//7
f 2//2 5//5 1//1
f 5//5 2//2 6//6
f 7//7 6//6 8//8
f 6//6 7//7 5//5
f 4//4 7//7 8//8
f 7//7 4//4 3//3
f 6//6 4//4 8//8
f 4//4 6//6 2//2
# 12 faces, 0 coords texture

# End of File
